<svg width="49" height="30" viewBox="0 0 49 30" fill="none" xmlns="http://www.w3.org/2000/svg">
<path fill-rule="evenodd" clip-rule="evenodd" d="M21.056 8.7681C20.2825 8.7681 19.5959 9.25852 19.3513 9.98559L16.3564 18.8883C15.9685 20.0413 16.8346 21.2319 18.0611 21.2319C18.8346 21.2319 19.5212 20.7415 19.7658 20.0144L22.7607 11.1117C23.1486 9.95874 22.2825 8.7681 21.056 8.7681ZM31.6466 8.88436C32.8667 8.76031 33.7356 9.95875 33.3477 11.1117C33.1031 11.8388 32.4145 12.3132 31.6449 12.3894C29.3749 12.6139 27.3412 13.5201 26.5132 15.9816L25.1566 20.0144C24.912 20.7415 24.2253 21.2319 23.4519 21.2319C22.2254 21.2319 21.3593 20.0413 21.7472 18.8883L23.1038 14.8555C24.4976 10.7122 27.8775 9.26757 31.6466 8.88436Z" fill="#3040FF"/>
<path d="M16.4862 2.20902C16.8741 1.05606 16.0044 -0.135488 14.787 0.0125056C9.77384 0.621931 5.38363 3.16497 3.62667 8.38779L2.89975 10.5486L0.0935434 18.8883C-0.294344 20.0412 0.57255 21.2319 1.79908 21.2319C2.57253 21.2319 3.25963 20.7415 3.50422 20.0144L4.04172 18.4166C5.95372 12.3292 9.04153 12.3292 13.0729 12.3292L10.8601 18.9072C10.4753 20.0509 11.3344 21.2319 12.551 21.2319C13.3083 21.2319 13.9829 20.7578 14.2332 20.0496L15.0742 17.6708L16.4923 13.4553C17.268 11.1494 15.5359 8.7681 13.0829 8.7681H12.5653C10.5206 8.7681 8.56251 9.25773 6.82504 10.1413L7.0361 9.5139C8.21198 6.01844 11.2729 3.91527 14.7842 3.50181C15.5522 3.41138 16.2416 2.93608 16.4862 2.20902Z" fill="#3040FF"/>
<path d="M32.5138 27.791C32.1259 28.9439 32.9956 30.1355 34.213 29.9875C39.2262 29.3781 43.6164 26.835 45.3733 21.6122L46.1002 19.4514L48.9065 11.1117C49.2943 9.95877 48.4275 8.7681 47.2009 8.7681C46.4275 8.7681 45.7404 9.25852 45.4958 9.98559L44.9583 11.5834C43.0463 17.6708 39.9585 17.6708 35.9271 17.6708L38.1399 11.0928C38.5247 9.94914 37.6656 8.7681 36.449 8.7681C35.6917 8.7681 35.0171 9.24222 34.7668 9.95039L33.9258 12.3292L32.5077 16.5447C31.732 18.8506 33.4641 21.2319 35.9171 21.2319H36.4347C38.4794 21.2319 40.4375 20.7423 42.175 19.8587L41.9639 20.4861C40.788 23.9816 37.7271 26.0847 34.2158 26.4982C33.4478 26.5886 32.7584 27.0639 32.5138 27.791Z" fill="#3040FF"/>
</svg>
